<svg width="512" height="188" viewBox="0 0 512 188" fill="none" xmlns="http://www.w3.org/2000/svg">
<g clip-path="url(#clip0_5468_29403)">
<path d="M93.8009 187.217C145.316 187.217 187.077 145.456 187.077 93.9405C187.077 42.4254 145.316 0.664062 93.8009 0.664062C42.2857 0.664062 0.524414 42.4254 0.524414 93.9405C0.524414 145.456 42.2857 187.217 93.8009 187.217Z" fill="#0089FF"/>
<path d="M106.219 57.0447H61.9886C57.9117 57.0447 54.6074 60.349 54.6074 64.4258V123.458C54.6074 127.535 57.9117 130.839 61.9886 130.839H106.219C110.296 130.839 113.6 127.535 113.6 123.458C113.6 119.381 110.296 116.077 106.219 116.077H69.3641V101.32H106.219C110.296 101.32 113.6 98.016 113.6 93.9392C113.6 89.8623 110.296 86.558 106.219 86.558H69.3641V71.8014H106.219C110.296 71.8014 113.6 68.497 113.6 64.4202C113.6 60.3434 110.296 57.0391 106.219 57.0391V57.0447Z" fill="white"/>
<path d="M152.108 92.2986L132.311 72.5009C130.844 71.0348 128.341 72.0723 128.341 74.1474V113.732C128.341 115.801 130.844 116.839 132.311 115.378L152.108 95.5916C153.016 94.6838 153.016 93.2121 152.108 92.3042V92.2986Z" fill="white"/>
<path d="M290.095 76.0899C286.948 69.8422 282.77 65.1 277.554 61.8577C272.338 58.6154 266.632 56.9971 260.435 56.9971C253.296 56.9971 246.981 58.5703 241.483 61.7167C235.985 64.8631 231.666 69.2106 228.519 74.7479C225.373 80.2908 223.8 86.6795 223.8 93.9084C223.8 101.137 225.328 107.532 228.378 113.069C231.429 118.612 235.636 122.954 240.987 126.1C246.338 129.247 252.49 130.82 259.442 130.82C264.985 130.82 269.914 130.064 274.239 128.564C278.558 127.064 282.291 124.877 285.437 122.012C288.584 119.148 291.144 115.742 293.117 111.795L276.488 105.316C275.175 107.949 273.291 110.086 270.85 111.727C268.408 113.373 265.262 114.191 261.41 114.191C258.213 114.191 255.23 113.509 252.462 112.15C249.687 110.791 247.438 108.817 245.701 106.235C244.252 104.081 243.417 101.611 243.175 98.8367H294.803C294.803 89.9162 293.23 82.332 290.084 76.0787L290.095 76.0899ZM244.178 85.0387C244.426 82.4392 245.261 80.2965 246.699 78.6274C248.436 76.6087 250.528 75.1313 252.969 74.1897C255.411 73.2536 257.711 72.78 259.871 72.78C262.031 72.78 264.258 73.2536 266.564 74.1897C268.865 75.1313 270.816 76.6087 272.412 78.6274C273.731 80.2965 274.498 82.4392 274.724 85.0387H244.178Z" fill="#212121"/>
<path d="M357.698 60.386C353.745 58.1248 348.992 56.9971 343.437 56.9971C337.883 56.9971 333.389 58.3898 329.386 61.1641C326.752 62.9911 324.519 65.3537 322.659 68.2408L321.83 56.9971H304.321V130.831H322.957V92.3014C322.957 86.3694 324.249 81.9035 326.843 78.8868C329.431 75.8757 333.124 74.4152 337.928 74.5111C340.562 74.5111 342.868 75.1031 344.847 76.276C346.826 77.4545 348.354 79.3604 349.437 81.9937C350.52 84.6327 351.061 88.3486 351.061 93.1472V130.831H369.697V89.3354C369.787 81.8076 368.801 75.6614 366.731 70.9079C364.662 66.1544 361.651 62.6471 357.692 60.386H357.698Z" fill="#212121"/>
<path d="M420.157 112.971C419.029 113.394 417.991 113.608 417.05 113.608C414.507 113.608 412.578 112.83 411.259 111.279C409.939 109.728 409.28 107.445 409.28 104.434V72.8227H426.929V57.006H409.28V40.8848H390.643V57.006H379.208V72.8227H390.643V108.527C390.643 115.683 392.64 121.192 396.643 125.049C400.641 128.912 406.55 130.84 414.366 130.84C417.095 130.84 419.847 130.299 422.627 129.216C425.401 128.133 427.921 126.746 430.182 125.049L423.687 111.07C422.463 111.916 421.284 112.553 420.157 112.976V112.971Z" fill="#212121"/>
<path d="M458.336 70.1579V56.9971H439.7V130.831H458.336V90.7451C458.336 87.0742 459.515 84.0631 461.866 81.7061C464.218 79.3548 467.302 77.6575 471.114 76.6256C474.926 75.5881 478.997 75.0693 483.327 75.0693V56.9971C478.247 56.9971 473.375 58.2207 468.712 60.6679C464.59 62.8332 461.127 66.0022 458.331 70.1579H458.336Z" fill="#212121"/>
<path d="M511.474 56.9971H492.838V130.831H511.474V56.9971Z" fill="#212121"/>
<path d="M502.154 51.8902C504.686 51.8902 506.874 50.9711 508.712 49.1329C510.55 47.2947 511.469 45.1068 511.469 42.575C511.469 40.0432 510.55 37.8554 508.712 36.0171C506.874 34.1789 504.686 33.2598 502.154 33.2598C499.622 33.2598 497.536 34.1789 495.652 36.0171C493.769 37.8554 492.833 40.0432 492.833 42.575C492.833 45.1068 493.769 47.2947 495.652 49.1329C497.53 50.9711 499.701 51.8902 502.154 51.8902Z" fill="#212121"/>
</g>
<defs>
<clipPath id="clip0_5468_29403">
<rect width="512" height="187.207" fill="white" transform="translate(0 0.334961)"/>
</clipPath>
</defs>
</svg>
